<mxfile host="app.diagrams.net" modified="2022-06-09T03:36:09.115Z" agent="5.0 (Macintosh; Intel Mac OS X 10_15_7) AppleWebKit/537.36 (KHTML, like Gecko) Chrome/96.0.4664.110 Safari/537.36" etag="Cft8VoTK2wb0XT9-1KEo" version="17.4.6" type="github">
  <diagram id="C5RBs43oDa-KdzZeNtuy" name="Page-1">
    <mxGraphModel dx="844" dy="809" grid="1" gridSize="10" guides="1" tooltips="1" connect="1" arrows="1" fold="1" page="1" pageScale="1" pageWidth="827" pageHeight="1169" math="0" shadow="0">
      <root>
        <mxCell id="WIyWlLk6GJQsqaUBKTNV-0" />
        <mxCell id="WIyWlLk6GJQsqaUBKTNV-1" parent="WIyWlLk6GJQsqaUBKTNV-0" />
        <mxCell id="skOZMa7S_Odp5JBViOfQ-37" style="edgeStyle=orthogonalEdgeStyle;rounded=0;orthogonalLoop=1;jettySize=auto;html=1;" edge="1" parent="WIyWlLk6GJQsqaUBKTNV-1">
          <mxGeometry relative="1" as="geometry">
            <mxPoint x="510" y="420" as="targetPoint" />
            <mxPoint x="510" y="254" as="sourcePoint" />
          </mxGeometry>
        </mxCell>
        <mxCell id="skOZMa7S_Odp5JBViOfQ-42" value="Vote on stacking protocol:&lt;br&gt;&amp;nbsp;variables % return logistics,&lt;br&gt;variable amount stacked" style="edgeLabel;html=1;align=center;verticalAlign=middle;resizable=0;points=[];" vertex="1" connectable="0" parent="skOZMa7S_Odp5JBViOfQ-37">
          <mxGeometry x="0.2535" y="4" relative="1" as="geometry">
            <mxPoint x="46" y="-38" as="offset" />
          </mxGeometry>
        </mxCell>
        <mxCell id="skOZMa7S_Odp5JBViOfQ-38" style="edgeStyle=orthogonalEdgeStyle;rounded=0;orthogonalLoop=1;jettySize=auto;html=1;entryX=1;entryY=0.25;entryDx=0;entryDy=0;" edge="1" parent="WIyWlLk6GJQsqaUBKTNV-1" source="WIyWlLk6GJQsqaUBKTNV-3" target="skOZMa7S_Odp5JBViOfQ-8">
          <mxGeometry relative="1" as="geometry">
            <Array as="points">
              <mxPoint x="485" y="270" />
              <mxPoint x="220" y="270" />
              <mxPoint x="220" y="353" />
            </Array>
          </mxGeometry>
        </mxCell>
        <mxCell id="skOZMa7S_Odp5JBViOfQ-41" value="Submit Proposals&amp;nbsp;" style="edgeLabel;html=1;align=center;verticalAlign=middle;resizable=0;points=[];" vertex="1" connectable="0" parent="skOZMa7S_Odp5JBViOfQ-38">
          <mxGeometry x="-0.0446" y="1" relative="1" as="geometry">
            <mxPoint x="-106" y="19" as="offset" />
          </mxGeometry>
        </mxCell>
        <mxCell id="skOZMa7S_Odp5JBViOfQ-47" style="edgeStyle=orthogonalEdgeStyle;rounded=0;orthogonalLoop=1;jettySize=auto;html=1;entryX=0.5;entryY=0;entryDx=0;entryDy=0;" edge="1" parent="WIyWlLk6GJQsqaUBKTNV-1" source="WIyWlLk6GJQsqaUBKTNV-3" target="skOZMa7S_Odp5JBViOfQ-12">
          <mxGeometry relative="1" as="geometry">
            <Array as="points">
              <mxPoint x="485" y="280" />
              <mxPoint x="265" y="280" />
            </Array>
          </mxGeometry>
        </mxCell>
        <mxCell id="skOZMa7S_Odp5JBViOfQ-48" value="Vote on:&lt;br&gt;&amp;nbsp;reform proposals" style="edgeLabel;html=1;align=center;verticalAlign=middle;resizable=0;points=[];" vertex="1" connectable="0" parent="skOZMa7S_Odp5JBViOfQ-47">
          <mxGeometry x="0.0642" y="4" relative="1" as="geometry">
            <mxPoint x="-9" y="76" as="offset" />
          </mxGeometry>
        </mxCell>
        <mxCell id="skOZMa7S_Odp5JBViOfQ-54" style="edgeStyle=orthogonalEdgeStyle;rounded=0;orthogonalLoop=1;jettySize=auto;html=1;" edge="1" parent="WIyWlLk6GJQsqaUBKTNV-1" source="WIyWlLk6GJQsqaUBKTNV-3" target="skOZMa7S_Odp5JBViOfQ-53">
          <mxGeometry relative="1" as="geometry">
            <Array as="points">
              <mxPoint x="485" y="290" />
              <mxPoint x="400" y="290" />
            </Array>
          </mxGeometry>
        </mxCell>
        <mxCell id="skOZMa7S_Odp5JBViOfQ-55" value="Run / Vote on Board members" style="edgeLabel;html=1;align=center;verticalAlign=middle;resizable=0;points=[];" vertex="1" connectable="0" parent="skOZMa7S_Odp5JBViOfQ-54">
          <mxGeometry x="0.3672" y="2" relative="1" as="geometry">
            <mxPoint x="-31" y="8" as="offset" />
          </mxGeometry>
        </mxCell>
        <mxCell id="WIyWlLk6GJQsqaUBKTNV-3" value="Is member, true&lt;br&gt;hash&lt;br&gt;list of members" style="rounded=1;whiteSpace=wrap;html=1;fontSize=12;glass=0;strokeWidth=1;shadow=0;" parent="WIyWlLk6GJQsqaUBKTNV-1" vertex="1">
          <mxGeometry x="425" y="202" width="120" height="52" as="geometry" />
        </mxCell>
        <mxCell id="skOZMa7S_Odp5JBViOfQ-1" value="NO&lt;br&gt;" style="edgeStyle=orthogonalEdgeStyle;rounded=0;orthogonalLoop=1;jettySize=auto;html=1;exitX=0;exitY=0.5;exitDx=0;exitDy=0;entryX=1;entryY=0.5;entryDx=0;entryDy=0;" edge="1" parent="WIyWlLk6GJQsqaUBKTNV-1" target="WIyWlLk6GJQsqaUBKTNV-7">
          <mxGeometry relative="1" as="geometry">
            <mxPoint x="235" y="228" as="sourcePoint" />
          </mxGeometry>
        </mxCell>
        <mxCell id="skOZMa7S_Odp5JBViOfQ-2" value="YES" style="edgeStyle=orthogonalEdgeStyle;rounded=0;orthogonalLoop=1;jettySize=auto;html=1;exitX=1;exitY=0.5;exitDx=0;exitDy=0;" edge="1" parent="WIyWlLk6GJQsqaUBKTNV-1" target="WIyWlLk6GJQsqaUBKTNV-3">
          <mxGeometry relative="1" as="geometry">
            <mxPoint x="355" y="228" as="sourcePoint" />
          </mxGeometry>
        </mxCell>
        <mxCell id="WIyWlLk6GJQsqaUBKTNV-6" value="is resident, true&lt;br&gt;holds token, true" style="rhombus;whiteSpace=wrap;html=1;shadow=0;fontFamily=Helvetica;fontSize=12;align=center;strokeWidth=1;spacing=6;spacingTop=-4;" parent="WIyWlLk6GJQsqaUBKTNV-1" vertex="1">
          <mxGeometry x="230" y="192.5" width="130" height="71" as="geometry" />
        </mxCell>
        <mxCell id="WIyWlLk6GJQsqaUBKTNV-7" value="is member, FALSE" style="rounded=1;whiteSpace=wrap;html=1;fontSize=12;glass=0;strokeWidth=1;shadow=0;" parent="WIyWlLk6GJQsqaUBKTNV-1" vertex="1">
          <mxGeometry x="55" y="208" width="120" height="40" as="geometry" />
        </mxCell>
        <mxCell id="skOZMa7S_Odp5JBViOfQ-27" style="edgeStyle=orthogonalEdgeStyle;rounded=0;orthogonalLoop=1;jettySize=auto;html=1;" edge="1" parent="WIyWlLk6GJQsqaUBKTNV-1" target="skOZMa7S_Odp5JBViOfQ-26">
          <mxGeometry relative="1" as="geometry">
            <mxPoint x="460" y="420" as="sourcePoint" />
          </mxGeometry>
        </mxCell>
        <mxCell id="skOZMa7S_Odp5JBViOfQ-6" style="edgeStyle=orthogonalEdgeStyle;rounded=0;orthogonalLoop=1;jettySize=auto;html=1;entryX=0.5;entryY=0;entryDx=0;entryDy=0;" edge="1" parent="WIyWlLk6GJQsqaUBKTNV-1" source="skOZMa7S_Odp5JBViOfQ-4" target="WIyWlLk6GJQsqaUBKTNV-6">
          <mxGeometry relative="1" as="geometry" />
        </mxCell>
        <mxCell id="skOZMa7S_Odp5JBViOfQ-7" value="Links to contract" style="edgeLabel;html=1;align=center;verticalAlign=middle;resizable=0;points=[];" vertex="1" connectable="0" parent="skOZMa7S_Odp5JBViOfQ-6">
          <mxGeometry x="0.4" y="2" relative="1" as="geometry">
            <mxPoint x="-2" y="-11" as="offset" />
          </mxGeometry>
        </mxCell>
        <mxCell id="skOZMa7S_Odp5JBViOfQ-4" value="front end system for user interface:&lt;br&gt;&lt;br&gt;enter proof of residence&lt;br&gt;&lt;br&gt;and proof of token" style="rounded=1;whiteSpace=wrap;html=1;" vertex="1" parent="WIyWlLk6GJQsqaUBKTNV-1">
          <mxGeometry x="230" y="10" width="120" height="110" as="geometry" />
        </mxCell>
        <mxCell id="skOZMa7S_Odp5JBViOfQ-58" style="edgeStyle=orthogonalEdgeStyle;rounded=0;orthogonalLoop=1;jettySize=auto;html=1;entryX=0;entryY=0;entryDx=0;entryDy=0;" edge="1" parent="WIyWlLk6GJQsqaUBKTNV-1" source="skOZMa7S_Odp5JBViOfQ-8" target="skOZMa7S_Odp5JBViOfQ-12">
          <mxGeometry relative="1" as="geometry" />
        </mxCell>
        <mxCell id="skOZMa7S_Odp5JBViOfQ-59" value="Start Vote" style="edgeLabel;html=1;align=center;verticalAlign=middle;resizable=0;points=[];" vertex="1" connectable="0" parent="skOZMa7S_Odp5JBViOfQ-58">
          <mxGeometry x="0.1341" y="3" relative="1" as="geometry">
            <mxPoint as="offset" />
          </mxGeometry>
        </mxCell>
        <mxCell id="skOZMa7S_Odp5JBViOfQ-8" value="front end system to store input: &quot;reform proposals&quot; and the requested claim amount (stx), proposed claimant (principle)&lt;br&gt;&lt;br&gt;post reform proposal: &quot;community board&quot;" style="rounded=1;whiteSpace=wrap;html=1;" vertex="1" parent="WIyWlLk6GJQsqaUBKTNV-1">
          <mxGeometry x="55" y="315" width="120" height="150" as="geometry" />
        </mxCell>
        <mxCell id="skOZMa7S_Odp5JBViOfQ-19" style="edgeStyle=orthogonalEdgeStyle;rounded=0;orthogonalLoop=1;jettySize=auto;html=1;entryX=0.5;entryY=0;entryDx=0;entryDy=0;" edge="1" parent="WIyWlLk6GJQsqaUBKTNV-1" source="skOZMa7S_Odp5JBViOfQ-12" target="skOZMa7S_Odp5JBViOfQ-18">
          <mxGeometry relative="1" as="geometry" />
        </mxCell>
        <mxCell id="skOZMa7S_Odp5JBViOfQ-20" value="NO&lt;br&gt;" style="edgeLabel;html=1;align=center;verticalAlign=middle;resizable=0;points=[];" vertex="1" connectable="0" parent="skOZMa7S_Odp5JBViOfQ-19">
          <mxGeometry x="-0.12" relative="1" as="geometry">
            <mxPoint y="-10" as="offset" />
          </mxGeometry>
        </mxCell>
        <mxCell id="skOZMa7S_Odp5JBViOfQ-60" style="edgeStyle=orthogonalEdgeStyle;rounded=0;orthogonalLoop=1;jettySize=auto;html=1;" edge="1" parent="WIyWlLk6GJQsqaUBKTNV-1" source="skOZMa7S_Odp5JBViOfQ-12">
          <mxGeometry relative="1" as="geometry">
            <mxPoint x="400" y="500" as="targetPoint" />
          </mxGeometry>
        </mxCell>
        <mxCell id="skOZMa7S_Odp5JBViOfQ-62" value="YES" style="edgeLabel;html=1;align=center;verticalAlign=middle;resizable=0;points=[];" vertex="1" connectable="0" parent="skOZMa7S_Odp5JBViOfQ-60">
          <mxGeometry x="-0.0099" y="-1" relative="1" as="geometry">
            <mxPoint as="offset" />
          </mxGeometry>
        </mxCell>
        <mxCell id="skOZMa7S_Odp5JBViOfQ-12" value="VOTE:&lt;br&gt;transfer STX for proposal?" style="rhombus;whiteSpace=wrap;html=1;" vertex="1" parent="WIyWlLk6GJQsqaUBKTNV-1">
          <mxGeometry x="184" y="480" width="170" height="150" as="geometry" />
        </mxCell>
        <mxCell id="skOZMa7S_Odp5JBViOfQ-15" value="STX transfer to proposed claimant" style="rounded=1;whiteSpace=wrap;html=1;" vertex="1" parent="WIyWlLk6GJQsqaUBKTNV-1">
          <mxGeometry x="400" y="525" width="120" height="60" as="geometry" />
        </mxCell>
        <mxCell id="skOZMa7S_Odp5JBViOfQ-18" value="The proposal is rejected: no STX transferred" style="rounded=1;whiteSpace=wrap;html=1;" vertex="1" parent="WIyWlLk6GJQsqaUBKTNV-1">
          <mxGeometry x="30" y="630" width="120" height="60" as="geometry" />
        </mxCell>
        <mxCell id="skOZMa7S_Odp5JBViOfQ-33" style="edgeStyle=orthogonalEdgeStyle;rounded=0;orthogonalLoop=1;jettySize=auto;html=1;entryX=0.75;entryY=1;entryDx=0;entryDy=0;" edge="1" parent="WIyWlLk6GJQsqaUBKTNV-1" source="skOZMa7S_Odp5JBViOfQ-26">
          <mxGeometry relative="1" as="geometry">
            <mxPoint x="430" y="440" as="targetPoint" />
            <Array as="points">
              <mxPoint x="750" y="470" />
              <mxPoint x="430" y="470" />
            </Array>
          </mxGeometry>
        </mxCell>
        <mxCell id="skOZMa7S_Odp5JBViOfQ-35" style="edgeStyle=orthogonalEdgeStyle;rounded=0;orthogonalLoop=1;jettySize=auto;html=1;entryX=0.5;entryY=0;entryDx=0;entryDy=0;" edge="1" parent="WIyWlLk6GJQsqaUBKTNV-1" source="skOZMa7S_Odp5JBViOfQ-26" target="WIyWlLk6GJQsqaUBKTNV-3">
          <mxGeometry relative="1" as="geometry">
            <Array as="points">
              <mxPoint x="750" y="182" />
              <mxPoint x="485" y="182" />
            </Array>
          </mxGeometry>
        </mxCell>
        <mxCell id="skOZMa7S_Odp5JBViOfQ-36" value="variable % of returns to members" style="edgeLabel;html=1;align=center;verticalAlign=middle;resizable=0;points=[];" vertex="1" connectable="0" parent="skOZMa7S_Odp5JBViOfQ-35">
          <mxGeometry x="0.3269" y="-2" relative="1" as="geometry">
            <mxPoint y="-14" as="offset" />
          </mxGeometry>
        </mxCell>
        <mxCell id="skOZMa7S_Odp5JBViOfQ-26" value="stacking protocol" style="rounded=1;whiteSpace=wrap;html=1;" vertex="1" parent="WIyWlLk6GJQsqaUBKTNV-1">
          <mxGeometry x="660" y="390" width="120" height="60" as="geometry" />
        </mxCell>
        <mxCell id="skOZMa7S_Odp5JBViOfQ-34" value="&lt;span style=&quot;font-size: 11px ; background-color: rgb(255 , 255 , 255)&quot;&gt;variable % return liquidity pool&lt;/span&gt;" style="text;html=1;align=center;verticalAlign=middle;resizable=0;points=[];autosize=1;strokeColor=none;fillColor=none;" vertex="1" parent="WIyWlLk6GJQsqaUBKTNV-1">
          <mxGeometry x="510" y="450" width="160" height="20" as="geometry" />
        </mxCell>
        <mxCell id="skOZMa7S_Odp5JBViOfQ-61" style="edgeStyle=orthogonalEdgeStyle;rounded=0;orthogonalLoop=1;jettySize=auto;html=1;" edge="1" parent="WIyWlLk6GJQsqaUBKTNV-1" source="skOZMa7S_Odp5JBViOfQ-46" target="skOZMa7S_Odp5JBViOfQ-15">
          <mxGeometry relative="1" as="geometry">
            <Array as="points">
              <mxPoint x="400" y="500" />
              <mxPoint x="460" y="500" />
            </Array>
          </mxGeometry>
        </mxCell>
        <mxCell id="skOZMa7S_Odp5JBViOfQ-46" value="liquidity pool" style="ellipse;whiteSpace=wrap;html=1;" vertex="1" parent="WIyWlLk6GJQsqaUBKTNV-1">
          <mxGeometry x="340" y="400" width="120" height="40" as="geometry" />
        </mxCell>
        <mxCell id="skOZMa7S_Odp5JBViOfQ-56" style="edgeStyle=orthogonalEdgeStyle;rounded=0;orthogonalLoop=1;jettySize=auto;html=1;" edge="1" parent="WIyWlLk6GJQsqaUBKTNV-1" source="skOZMa7S_Odp5JBViOfQ-53" target="skOZMa7S_Odp5JBViOfQ-46">
          <mxGeometry relative="1" as="geometry">
            <Array as="points">
              <mxPoint x="400" y="380" />
              <mxPoint x="400" y="380" />
            </Array>
          </mxGeometry>
        </mxCell>
        <mxCell id="skOZMa7S_Odp5JBViOfQ-53" value="Board&lt;br&gt;limited control over liquidity pool" style="rounded=1;whiteSpace=wrap;html=1;" vertex="1" parent="WIyWlLk6GJQsqaUBKTNV-1">
          <mxGeometry x="334" y="320" width="140" height="50" as="geometry" />
        </mxCell>
      </root>
    </mxGraphModel>
  </diagram>
</mxfile>
